<svg xmlns="http://www.w3.org/2000/svg" xmlns:xlink="http://www.w3.org/1999/xlink" width="200" zoomAndPan="magnify" viewBox="0 0 150 149.999998" height="200" preserveAspectRatio="xMidYMid meet" version="1.0"><defs><g/><clipPath id="id1"><path d="M 87 17.109375 L 145.105469 17.109375 L 145.105469 133 L 87 133 Z M 87 17.109375 " clip-rule="nonzero"/></clipPath><clipPath id="id2"><path d="M 4.832031 17.109375 L 63 17.109375 L 63 133 L 4.832031 133 Z M 4.832031 17.109375 " clip-rule="nonzero"/></clipPath></defs><g clip-path="url(#id1)"><path fill="rgb(36.079407%, 88.238525%, 90.19928%)" d="M 87.15625 17.097656 L 87.15625 40.800781 L 121.347656 75.050781 L 87.15625 109.296875 L 87.15625 133 L 145.015625 75.050781 Z M 87.15625 17.097656 " fill-opacity="1" fill-rule="nonzero"/></g><g clip-path="url(#id2)"><path fill="rgb(36.079407%, 88.238525%, 90.19928%)" d="M 62.808594 40.800781 L 62.808594 17.097656 L 4.949219 75.050781 L 62.808594 133 L 62.808594 109.296875 L 28.617188 75.050781 Z M 62.808594 40.800781 " fill-opacity="1" fill-rule="nonzero"/></g><path fill="rgb(36.079407%, 88.238525%, 90.19928%)" d="M 46.726562 75.050781 L 74.980469 46.746094 L 103.238281 75.050781 L 74.980469 103.351562 Z M 46.726562 75.050781 " fill-opacity="1" fill-rule="nonzero"/><g fill="rgb(0%, 0%, 0%)" fill-opacity="1"><g transform="translate(54.644614, 81.64454)"><g><path d="M 18.125 -0.09375 L 18.125 0 L 13.109375 0 L 8.359375 -4.484375 L 5.984375 -4.484375 L 5.984375 0 L 2.09375 0 L 2.09375 -12.9375 L 12.59375 -12.9375 C 14.425781 -12.9375 15.773438 -12.582031 16.640625 -11.875 C 17.503906 -11.164062 17.9375 -10.109375 17.9375 -8.703125 C 17.9375 -7.398438 17.5625 -6.394531 16.8125 -5.6875 C 16.070312 -4.988281 14.914062 -4.59375 13.34375 -4.5 Z M 13.828125 -9.921875 L 5.984375 -9.921875 L 5.984375 -7.203125 L 13.828125 -7.203125 Z M 13.828125 -9.921875 "/></g></g></g><g fill="rgb(0%, 0%, 0%)" fill-opacity="1"><g transform="translate(75.671286, 81.64454)"><g><path d="M 8.859375 -7.875 L 18.640625 -7.875 L 18.640625 -5.453125 C 18.640625 -4.078125 18.351562 -2.96875 17.78125 -2.125 C 17.207031 -1.28125 16.289062 -0.664062 15.03125 -0.28125 C 13.769531 0.101562 12.085938 0.296875 9.984375 0.296875 C 7.816406 0.296875 6.109375 0.078125 4.859375 -0.359375 C 3.617188 -0.796875 2.71875 -1.5 2.15625 -2.46875 C 1.601562 -3.445312 1.328125 -4.78125 1.328125 -6.46875 C 1.328125 -8.1875 1.5625 -9.53125 2.03125 -10.5 C 2.507812 -11.46875 3.296875 -12.164062 4.390625 -12.59375 C 5.492188 -13.019531 7.03125 -13.234375 9 -13.234375 C 12.382812 -13.234375 15.316406 -13.132812 17.796875 -12.9375 L 17.90625 -9.46875 C 14.675781 -9.769531 12.078125 -9.972656 10.109375 -10.078125 C 9.015625 -10.140625 7.515625 -10.203125 5.609375 -10.265625 L 5.609375 -3.234375 C 6.972656 -3.160156 8.488281 -3.125 10.15625 -3.125 C 11.863281 -3.125 13.421875 -3.160156 14.828125 -3.234375 L 14.828125 -5.203125 L 8.859375 -5.203125 Z M 8.859375 -7.875 "/></g></g></g></svg>